<svg width="33" height="33" viewBox="0 0 33 33" fill="none" xmlns="http://www.w3.org/2000/svg">
<path d="M28.648 9.2675C28.373 9.44625 27.9812 9.61125 27.8162 9.79688C27.7543 9.85875 27.7199 9.9275 27.7337 9.99625V10.7044L27.5274 11.3987L27.3212 12.0862L27.0943 12.8425L26.6268 14.3894L26.173 15.9156L25.8293 17.0637C25.8293 17.2425 25.8224 17.4213 25.8087 17.5931C25.7605 18.2531 25.623 18.8856 25.403 19.4769C25.2724 19.8412 25.1143 20.1919 24.9218 20.5219C24.853 20.6525 24.7705 20.7831 24.688 20.9069C24.413 21.34 24.083 21.7388 23.7187 22.0894C23.4368 22.3713 23.1274 22.6325 22.7905 22.8525C22.7905 22.8525 22.7905 22.8525 22.7837 22.8525C22.7287 22.9006 22.6668 22.9419 22.598 22.9762C22.3849 23.1206 22.158 23.2444 21.9243 23.3544C21.7662 23.4369 21.608 23.5056 21.443 23.5675C21.4087 23.5881 21.3674 23.6019 21.333 23.6156C20.9412 23.8012 20.4874 23.925 20.0337 23.9869C20.0062 23.9937 19.9855 23.9937 19.958 24.0006C19.683 24.0487 19.4149 24.09 19.1399 24.1106C19.0162 24.1244 18.8855 24.1312 18.7618 24.1312L18.2737 24.1038L15.9224 23.98C15.9224 23.9731 15.9155 23.98 15.9155 23.98L14.733 23.9181C14.6437 23.9181 14.5474 23.9181 14.458 23.9112C14.0868 23.8975 13.7293 23.8563 13.3718 23.7806C13.3649 23.7806 13.3649 23.7806 13.3649 23.7806C12.7118 23.6569 12.0862 23.4369 11.5018 23.1413C11.1787 22.9762 10.8624 22.7906 10.5668 22.5775C10.443 22.4881 10.3262 22.3919 10.2093 22.2887C9.87928 22.0137 9.58365 21.7181 9.30865 21.4156C9.2674 21.3744 9.23303 21.3331 9.19865 21.2919C9.1574 21.2506 9.11615 21.2025 9.08178 21.1613C8.82053 20.8313 8.60053 20.4944 8.42178 20.1369C8.25678 19.8206 8.12615 19.4837 8.02303 19.1125C7.98178 18.9819 7.9474 18.8581 7.9199 18.7206C7.91303 18.7137 7.90615 18.7 7.90615 18.6863C7.8374 18.4044 7.77553 18.1088 7.74115 17.8131C7.6999 17.5863 7.67928 17.3594 7.67928 17.1256C7.66553 17.0363 7.66553 16.94 7.66553 16.8506L8.97865 14.8225L10.2643 12.8425L10.8487 11.9419L11.378 11.1306L11.5568 10.8487V10.1406C11.5705 9.9825 11.5774 9.8175 11.5705 9.66625C11.5637 9.185 11.4674 8.7175 11.3093 8.27062C11.158 7.79625 10.9449 7.34938 10.7249 6.93688C10.4637 6.4625 10.1887 6.03625 9.96178 5.65125C9.6249 5.0875 9.39115 4.62688 9.45303 4.30375C9.94803 4.18688 10.4705 4.125 10.9999 4.125H21.9999C24.8737 4.125 27.3487 5.9125 28.373 8.42875C28.483 8.69688 28.5793 8.97875 28.648 9.2675Z" fill="#304FFE"/>
<path d="M28.875 11V11.1856L27.9263 11.7356L27.3213 12.0862L26.6544 12.4712L25.3206 13.2481L24.0144 14.0044L22.6806 14.7744L22.1513 15.0838C22.1513 15.4138 22.0688 15.7163 21.9175 15.9913C21.7044 16.39 21.3469 16.72 20.8931 17.0019C20.4325 17.2837 19.8688 17.5106 19.2363 17.6756C19.2363 17.6756 19.2363 17.6687 19.2294 17.6756C16.7819 18.3081 13.4406 18.0194 11.8181 16.8094C11.3644 16.4725 11.0481 16.06 10.9106 15.5856C10.8694 15.4275 10.8488 15.2556 10.8488 15.0838V10.1406C10.8556 10.0375 10.7869 9.93438 10.6631 9.83125C10.2919 9.53562 9.41877 9.25375 8.44252 8.97188C7.67939 8.75875 6.86127 8.54563 6.17377 8.33938C5.63064 8.17438 5.17002 8.00938 4.89502 7.85125C5.01877 7.61063 5.16314 7.37 5.31439 7.14313C6.27689 5.73375 7.74814 4.69563 9.45314 4.30375C9.94814 4.18688 10.4706 4.125 11 4.125H18.425C22.1169 4.77125 25.52 6.27688 28.3731 8.42875C28.4831 8.69688 28.5794 8.97875 28.6481 9.2675C28.7719 9.72125 28.8475 10.1887 28.8681 10.6769C28.875 10.78 28.875 10.89 28.875 11Z" fill="#4928F4"/>
<path d="M28.8751 10.9998V14.0316L28.7238 14.4991L28.2082 16.101L27.6719 17.751L27.3901 18.631L27.1288 19.4491L26.8744 20.226L26.6269 20.996L26.4963 21.4016L26.3244 21.9379C26.3244 22.4604 26.3107 22.921 26.2763 23.3129C26.2694 23.3541 26.2626 23.3954 26.2626 23.4366C26.2213 23.801 26.1663 24.1104 26.0769 24.3716C26.0701 24.4129 26.0563 24.4541 26.0426 24.4885C25.8638 24.9835 25.5957 25.2998 25.1969 25.506C25.1007 25.561 24.9907 25.6023 24.8738 25.6435C24.5094 25.7673 24.0488 25.8291 23.4851 25.8635C23.0726 25.891 22.5982 25.8979 22.0619 25.8979H21.5876L20.7694 25.8635L20.6251 25.8566L19.1332 25.7948L17.6207 25.7329L12.6363 25.5266L11.3438 25.4716H11.1651C10.6288 25.4648 10.1682 25.4304 9.76944 25.3754C9.19194 25.286 8.74507 25.1348 8.40819 24.9079C7.92694 24.5985 7.64507 24.1448 7.48007 23.5123C7.43882 23.361 7.40444 23.2029 7.38382 23.031C7.31507 22.6323 7.28069 22.1716 7.26007 21.656C7.26007 21.5529 7.26007 21.4498 7.25319 21.3398C7.24632 21.3329 7.25319 21.3329 7.25319 21.3329V20.9341C7.24632 20.7348 7.24632 20.5285 7.24632 20.3154L7.28069 19.2085L7.30132 18.4179L7.32882 17.4966V17.366L7.37694 15.6748L7.42507 13.9835L7.47319 12.3954L7.51444 10.8348L7.52819 10.4223C7.52819 10.2091 6.80632 10.0854 6.00194 9.98227C5.36257 9.89977 4.66132 9.82414 4.24194 9.72789C4.27632 9.56977 4.31069 9.41164 4.35194 9.26039C4.47569 8.76539 4.66132 8.29789 4.89507 7.85102C5.01882 7.61039 5.16319 7.36977 5.31444 7.14289C6.79944 6.48977 8.34632 5.98102 9.96194 5.65102C11.3782 5.35539 12.8563 5.19727 14.3826 5.19727C19.4426 5.19727 24.1176 6.90914 27.8163 9.79664C28.1738 10.0716 28.5244 10.3673 28.8682 10.6766C28.8751 10.7798 28.8751 10.8898 28.8751 10.9998Z" fill="#6200EA"/>
<path d="M28.875 12.6294V15.7507L28.4969 16.4794L27.775 17.8888L27.39 18.6313L27.0394 19.3119L26.8881 19.6076C26.8881 19.8207 26.8881 20.0269 26.8744 20.2263C26.8744 20.5219 26.8606 20.8038 26.84 21.0651C26.8125 21.3744 26.7713 21.6563 26.73 21.9176C26.6269 22.4607 26.4825 22.9282 26.2763 23.3132C26.2488 23.3613 26.2212 23.4094 26.1937 23.4507C26.1181 23.5744 26.0288 23.6913 25.9325 23.8013C25.8088 23.9526 25.6713 24.0832 25.5131 24.1932C25.2794 24.3719 25.0044 24.5163 24.6881 24.6263C24.2962 24.7707 23.8425 24.8669 23.3063 24.9219C22.9556 24.9563 22.5706 24.9769 22.1513 24.9769L21.8625 24.9907L20.4325 25.0732H20.4256L18.9062 25.1626L17.3594 25.2519L15.2281 25.3757L12.6362 25.5269L12.2581 25.5476C11.9075 25.5476 11.5775 25.5269 11.2612 25.4857C11.2269 25.4788 11.1994 25.4719 11.165 25.4719C10.6975 25.3963 10.2713 25.2726 9.88625 25.1007C9.41875 24.8944 9.01312 24.6194 8.66937 24.2894C8.36687 23.9938 8.10562 23.6569 7.8925 23.2788C7.84437 23.1894 7.79625 23.1069 7.755 23.0107C7.54875 22.6051 7.38375 22.1513 7.26 21.6563C7.23938 21.5738 7.21875 21.4844 7.205 21.3951C7.16375 21.2369 7.12938 21.0719 7.10875 20.9001C7.03313 20.4601 6.99188 19.9926 6.97125 19.5044V19.4976C6.96438 19.2982 6.9575 19.1057 6.9575 18.8994L6.62063 18.0951L6.5725 17.9713L6.53125 17.8682L6.01562 16.6376L5.93313 16.4382L5.43812 15.2488L4.88813 13.9219C4.88813 13.9219 4.88812 13.9219 4.88125 13.9219L4.32437 12.5813L4.125 12.0932V11.0001C4.125 10.5669 4.16625 10.1407 4.24188 9.72818C4.27625 9.57006 4.31062 9.41193 4.35187 9.26068C4.93625 8.92381 5.54812 8.61443 6.17375 8.33943C7.60375 7.70006 9.13688 7.22568 10.725 6.93693C11.9075 6.72381 13.1381 6.60693 14.3825 6.60693C19.4081 6.60693 23.9663 8.42881 27.5275 11.3988C27.665 11.5088 27.7956 11.6188 27.9262 11.7357C28.2494 12.0176 28.5656 12.3132 28.875 12.6294Z" fill="#673AB7"/>
<path d="M28.875 14.6779V18.2117L28.4831 19.0298L27.7406 20.5767L27.7337 20.5973C27.7337 20.8929 27.72 21.1611 27.6994 21.4017C27.6306 22.1923 27.4381 22.6942 27.1219 23.0036C26.895 23.2373 26.6131 23.3679 26.2625 23.4367C26.2419 23.4436 26.2144 23.4436 26.1937 23.4504C26.0837 23.4711 25.9669 23.4848 25.8431 23.4848C25.4169 23.5261 24.915 23.4986 24.3375 23.4573C24.2756 23.4573 24.2069 23.4504 24.1381 23.4436C23.7188 23.4161 23.2719 23.3886 22.7769 23.368C22.5088 23.3611 22.2269 23.3542 21.9381 23.3542H21.9244L21.23 23.4092H21.2231L19.6625 23.5192L17.8819 23.6567L17.6206 23.6773L15.5375 23.8286L14.4581 23.9111L13.3925 23.9867C13.2069 23.9867 13.0281 23.9867 12.8494 23.9798C12.8494 23.9798 12.8425 23.9729 12.8425 23.9798C12.0656 23.9661 11.3713 23.9179 10.7525 23.8011C10.1819 23.7048 9.68 23.5536 9.25375 23.3267C8.81375 23.1136 8.44937 22.8111 8.15375 22.4261C7.87187 22.0479 7.66563 21.5736 7.535 21.0029C7.535 20.9961 7.535 20.9961 7.535 20.9961C7.43875 20.5354 7.38375 19.9992 7.38375 19.3942L7.28063 19.2086L6.66875 18.1154L6.57937 17.9642L6.53125 17.8679L5.89187 16.7336L5.57562 16.1629L5.17688 15.4548L4.48938 14.2242L4.125 13.5779V11.0479C4.73 10.6492 5.35562 10.2986 6.00187 9.98232C6.78562 9.58357 7.59687 9.2467 8.4425 8.9717C9.36375 8.6692 10.3263 8.42857 11.3094 8.27045C12.3063 8.10545 13.3306 8.02295 14.3825 8.02295C19.0575 8.02295 23.3475 9.69357 26.6544 12.4711C26.8056 12.5879 26.95 12.7186 27.0944 12.8423C27.6719 13.3579 28.2219 13.9148 28.7237 14.4992C28.7787 14.5611 28.8337 14.6161 28.875 14.6779Z" fill="#8E24AA"/>
<path d="M28.875 16.9882V21.9589C28.71 21.8626 28.4831 21.7457 28.2013 21.622C28.05 21.5464 27.8781 21.4707 27.6994 21.402C27.4381 21.2851 27.1562 21.1751 26.84 21.0651C26.7712 21.0376 26.7025 21.017 26.6269 20.9964C26.5031 20.9482 26.3725 20.907 26.2419 20.8657C25.8362 20.742 25.3894 20.6251 24.9219 20.522C24.7431 20.4876 24.5575 20.4532 24.3719 20.4257C23.7738 20.3226 23.1344 20.2607 22.4675 20.2539C22.4125 20.247 22.3506 20.247 22.2956 20.247L20.5288 20.2607L18.1225 20.2745H18.1156L12.9663 20.3157C11.33 20.3157 10.3263 20.7076 9.72125 20.8657C9.72125 20.8657 9.71438 20.8657 9.71438 20.8726C9.075 21.0376 8.87563 20.9345 8.82062 19.8139C8.80687 19.5045 8.8 19.1057 8.8 18.6176L8.415 18.322L7.74125 17.8132L7.32875 17.497L7.24625 17.4351L6.105 16.5689L5.93313 16.4382L5.57562 16.1632L4.91563 15.6682L4.125 15.0632V12.7257C4.19375 12.6707 4.25562 12.6226 4.32437 12.5814C5.32125 11.8939 6.38688 11.3095 7.51438 10.8351C8.51813 10.4089 9.57688 10.072 10.6631 9.83137C10.9588 9.76949 11.2613 9.70762 11.5706 9.66637C12.485 9.50824 13.4269 9.43262 14.3825 9.43262C18.5144 9.43262 22.3094 10.8695 25.3206 13.2482C25.7744 13.6057 26.2144 13.9839 26.6269 14.3895C27.1906 14.9257 27.72 15.4964 28.2081 16.1014C28.3044 16.2251 28.4006 16.3489 28.4969 16.4795C28.6275 16.6445 28.7512 16.8164 28.875 16.9882Z" fill="#C2185B"/>
<path d="M28.875 19.7449V21.9999C28.875 22.4468 28.8337 22.8868 28.7512 23.313C28.6275 23.9455 28.4144 24.5505 28.1256 25.1143C27.9744 25.1486 27.8025 25.1486 27.61 25.1211C27.1769 25.0455 26.6681 24.8186 26.1181 24.523C26.0906 24.5161 26.0631 24.5024 26.0425 24.4886C25.8706 24.3993 25.6919 24.303 25.5131 24.193C25.1488 23.9936 24.7638 23.7736 24.3787 23.5674C24.2962 23.5261 24.2138 23.4849 24.1381 23.4436C23.6981 23.2168 23.2444 23.0105 22.7906 22.8524C22.7906 22.8524 22.7906 22.8524 22.7837 22.8524C22.6875 22.818 22.5844 22.7836 22.4813 22.7561C22.0894 22.6461 21.6906 22.5774 21.3056 22.5774L20.5494 22.3574L17.2013 21.388C17.2013 21.388 17.2013 21.388 17.1944 21.388L15.1388 20.7899H15.1319L14.2381 20.5286C11.6531 20.5286 10.065 21.6286 9.295 21.2093C8.9925 21.0511 8.81375 20.6524 8.75187 19.8686C8.73125 19.6486 8.72437 19.4011 8.72437 19.1124L7.92 18.7205L7.88563 18.7068H7.87875L7.30125 18.418L6.66875 18.1155L6.62063 18.0949L6.50375 18.033L5.15625 17.3799L4.125 16.878V14.5199C4.24188 14.4168 4.36563 14.3205 4.48938 14.2243C4.62 14.1211 4.75062 14.0249 4.88125 13.9218C4.88812 13.9218 4.88813 13.9218 4.88813 13.9218C5.69938 13.3374 6.55875 12.8218 7.47312 12.3955C8.53875 11.8868 9.67312 11.4949 10.8487 11.2405C11.0206 11.1993 11.1994 11.158 11.3781 11.1305C12.3544 10.9449 13.3581 10.8486 14.3825 10.8486C18.0056 10.8486 21.3331 12.0243 24.0144 14.0043C24.7913 14.5818 25.5131 15.2211 26.1731 15.9155C26.7162 16.4861 27.2181 17.1049 27.6719 17.7511C27.7062 17.7993 27.7406 17.8474 27.775 17.8886C28.0294 18.2599 28.2631 18.638 28.4831 19.0299C28.6275 19.2636 28.7512 19.5043 28.875 19.7449Z" fill="#D81B60"/>
<path d="M28.7512 23.3133C28.6275 23.9458 28.4144 24.5508 28.1256 25.1145C27.995 25.3689 27.8506 25.6096 27.6925 25.8433C27.5962 25.9877 27.4931 26.1252 27.39 26.2558C27.1425 26.1595 26.7781 26.0221 26.3312 25.8708C26.3312 25.8708 26.3312 25.8708 26.3312 25.8639C25.9944 25.7471 25.6094 25.6233 25.1969 25.5064C25.08 25.472 24.9631 25.4377 24.8394 25.4033C24.3513 25.2727 23.8425 25.1558 23.3475 25.0871C22.935 25.0183 22.5294 24.9771 22.1513 24.9771L21.835 24.8877H21.8281L20.1644 24.4064L19.14 24.1108L17.9988 23.7808H17.9919L17.6206 23.6777L13.1313 22.3852L11.8387 22.0139L10.8762 21.7871L9.30875 21.4158L9.11625 21.3677C9.11625 21.3677 9.11625 21.3677 9.10938 21.3677L7.535 21.0033C7.535 20.9964 7.535 20.9964 7.535 20.9964L7.25313 20.9346L7.10875 20.9002L5.96063 20.6321L5.83 20.5977L4.85375 19.7933L4.125 19.1814V16.3764C4.37938 16.1289 4.64063 15.8952 4.91563 15.6683C4.99813 15.5927 5.0875 15.5239 5.17688 15.4552C5.25938 15.3864 5.34875 15.3177 5.43812 15.2489C6.06375 14.7746 6.72375 14.3483 7.425 13.9839C8.31875 13.5027 9.2675 13.1177 10.2644 12.8427C10.4569 12.7808 10.6494 12.7258 10.8487 12.6846C11.9762 12.4027 13.1588 12.2583 14.3825 12.2583C17.4556 12.2583 20.3156 13.1864 22.6806 14.7746C23.8563 15.5652 24.915 16.5139 25.8088 17.5933C26.2625 18.1364 26.675 18.7071 27.0394 19.3121C27.0738 19.3602 27.1012 19.4014 27.1287 19.4496C27.3487 19.8139 27.555 20.1921 27.7406 20.5771C27.9125 20.9208 28.0638 21.2646 28.2013 21.6221C28.4212 22.1721 28.6 22.7358 28.7512 23.3133Z" fill="#F50057"/>
<path d="M27.6925 25.8431C27.5962 25.9874 27.4931 26.1249 27.39 26.2556C27.0875 26.6337 26.7575 26.9774 26.3863 27.2799C26.0631 27.5481 25.7194 27.7887 25.355 27.9949C25.2175 27.9606 25.08 27.9193 24.9356 27.8643C24.4819 27.7062 24.0075 27.4449 23.5675 27.1699C22.9075 26.7506 22.3369 26.2968 22.0825 26.0906C21.9862 26.0081 21.9381 25.9668 21.9381 25.9668L20.7694 25.8637L20.625 25.8499L19.1125 25.7193L17.545 25.5818L15.2281 25.3756L11.5569 25.0524L11.5431 25.0456L10.2506 24.4199L8.94438 23.7874L7.8925 23.2787L7.66562 23.1687L7.38375 23.0312L6.4075 22.5568L5.10812 21.9312L4.7025 21.7318L4.125 21.5531V18.4799C4.44813 18.0949 4.79188 17.7306 5.15625 17.3799C5.39 17.1599 5.6375 16.9399 5.89187 16.7337C5.93312 16.6993 5.97438 16.6649 6.01562 16.6374C6.04313 16.6031 6.0775 16.5824 6.105 16.5687C6.51063 16.2387 6.93687 15.9431 7.37687 15.6749C7.88562 15.3518 8.42188 15.0631 8.97875 14.8224C9.57688 14.5543 10.2025 14.3274 10.8487 14.1556C11.9694 13.8393 13.1588 13.6743 14.3825 13.6743C17.1875 13.6743 19.7794 14.5268 21.9175 15.9912C23.2856 16.9262 24.4681 18.1087 25.4031 19.4768C25.7125 19.9168 25.9875 20.3843 26.2419 20.8656C26.3312 21.0443 26.4206 21.2231 26.4963 21.4018C26.5788 21.5737 26.6544 21.7456 26.73 21.9174C26.8744 22.2749 27.005 22.6324 27.1219 23.0037C27.3419 23.6912 27.5069 24.3924 27.61 25.1212C27.6444 25.3618 27.6719 25.6024 27.6925 25.8431Z" fill="#FF1744"/>
<path d="M26.3931 27.1015C26.3931 27.1565 26.3931 27.2184 26.3863 27.2802C26.0631 27.5484 25.7194 27.789 25.355 27.9952C25.2038 28.0777 25.0525 28.1602 24.8944 28.229C24.7362 28.3046 24.5781 28.3734 24.4131 28.4352C24.1794 28.3115 23.8631 28.1602 23.5263 28.0159C23.0519 27.8027 22.5363 27.6102 22.1375 27.5484C22.0413 27.5277 21.9519 27.5209 21.8694 27.5209L20.7419 27.3765H20.7281L19.3256 27.1909L17.9094 27.0052L17.2494 26.9227L12.0519 26.249C11.715 26.249 11.3575 26.2284 10.9862 26.1802C10.5325 26.139 10.0581 26.0702 9.58375 25.974C9.11625 25.8915 8.64187 25.7815 8.18812 25.6646C7.71375 25.5546 7.24625 25.424 6.81312 25.3002C6.31125 25.149 5.84375 25.0046 5.45187 24.874C5.12875 24.7709 4.85375 24.6746 4.64062 24.599C4.51687 24.3034 4.41375 23.994 4.33812 23.6777C4.19375 23.1415 4.125 22.5777 4.125 22.0002V20.8521C4.345 20.4877 4.58562 20.1302 4.85375 19.7934C5.34187 19.1471 5.89875 18.5559 6.50375 18.0334C6.52437 18.0059 6.55188 17.9852 6.5725 17.9715L6.57937 17.9646C6.7925 17.7721 7.0125 17.6002 7.24625 17.4352C7.27375 17.4077 7.30125 17.3871 7.32875 17.3665C7.43875 17.284 7.55562 17.2015 7.67938 17.1259C8.6625 16.459 9.74875 15.9365 10.9106 15.5859C12.0106 15.2559 13.1725 15.084 14.3825 15.084C16.7819 15.084 19.0231 15.7921 20.8931 17.0021C22.275 17.889 23.4644 19.0577 24.3719 20.4259C24.4819 20.584 24.585 20.7421 24.6881 20.9071C25.1625 21.7115 25.5544 22.5777 25.8431 23.4852C25.8775 23.5884 25.905 23.6915 25.9325 23.8015C25.9875 23.9871 26.0356 24.1796 26.0769 24.3721C26.0906 24.4202 26.1044 24.4684 26.1181 24.5234C26.2144 24.9565 26.2831 25.4102 26.3312 25.864C26.3312 25.8709 26.3312 25.8709 26.3312 25.8709C26.3725 26.2765 26.3931 26.689 26.3931 27.1015Z" fill="#FF5722"/>
<path d="M24.9769 27.1012C24.9769 27.3419 24.9631 27.6031 24.9356 27.8644C24.9219 27.9881 24.9081 28.1119 24.8944 28.2288C24.7363 28.3044 24.5781 28.3731 24.4131 28.435C24.1038 28.5519 23.7875 28.6481 23.4644 28.7169C23.2444 28.765 23.0175 28.8063 22.7906 28.8269H22.7838C22.5706 28.6962 22.3231 28.5381 22.0688 28.3594C21.6081 28.0363 21.1269 27.6719 20.7419 27.3762C20.735 27.3694 20.735 27.3694 20.7281 27.3625C20.3225 27.0531 20.0338 26.8194 20.0338 26.8194L19.305 26.8469L17.9025 26.895L17.2494 26.9225L14.6231 27.0187L12.4025 27.1012C12.2581 27.1081 12.0863 27.1081 11.8731 27.1012H11.8663C11.5775 27.0944 11.2338 27.0738 10.8556 27.0394C10.4156 27.005 9.93438 26.9638 9.44626 26.9156C8.97188 26.8606 8.49063 26.8056 8.03001 26.7506C7.52126 26.6956 7.04001 26.6337 6.62751 26.5787C6.30439 26.5375 6.02251 26.5031 5.79563 26.4756C5.60313 26.2556 5.43126 26.0288 5.26626 25.7812C5.01876 25.41 4.80563 25.0181 4.64063 24.5987C4.51688 24.3031 4.41376 23.9937 4.33813 23.6775C4.53751 23.0656 4.79876 22.4881 5.10813 21.9312C5.35563 21.4775 5.64438 21.0444 5.96063 20.6319C6.27001 20.2263 6.60688 19.8481 6.97126 19.5044V19.4975C7.07438 19.3944 7.17751 19.2981 7.28063 19.2088C7.47313 19.03 7.67251 18.865 7.87876 18.7069H7.88563C7.89251 18.6931 7.89938 18.6931 7.90626 18.6863C8.07126 18.5556 8.24313 18.4387 8.41501 18.3219C9.43251 17.6275 10.5806 17.1119 11.8181 16.8094C12.6363 16.61 13.4956 16.5 14.3825 16.5C16.1288 16.5 17.7788 16.9194 19.2294 17.6756H19.2363C20.4806 18.315 21.5806 19.195 22.4675 20.2537C22.9556 20.8175 23.375 21.4363 23.7188 22.0894C23.9594 22.5294 24.1656 22.99 24.3375 23.4575C24.3513 23.4987 24.365 23.5331 24.3788 23.5675C24.4956 23.9112 24.5988 24.2687 24.6881 24.6262C24.75 24.8806 24.7981 25.1419 24.8394 25.4031C24.8531 25.4856 24.8669 25.5612 24.8738 25.6437C24.9425 26.1181 24.9769 26.6062 24.9769 27.1012Z" fill="#FF6F00"/>
<path d="M23.5676 27.101V27.1698C23.5676 27.4035 23.547 27.6991 23.5264 28.0154C23.5057 28.2491 23.4851 28.4898 23.4645 28.7166C23.2445 28.7648 23.0176 28.806 22.7907 28.8266H22.7839C22.5226 28.861 22.2682 28.8748 22.0001 28.8748H20.797L20.5357 28.7991L19.1814 28.3866L17.8064 27.9741L14.6232 27.0185L13.2482 26.606C13.2482 26.606 12.6776 26.8329 11.8732 27.101H11.8664C11.557 27.2041 11.2201 27.3141 10.8626 27.4241C10.4157 27.5548 9.94136 27.6854 9.47386 27.7885C8.99261 27.8985 8.51823 27.981 8.09198 28.0154C7.96136 28.0291 7.83073 28.036 7.71386 28.036C7.32886 27.8229 6.95761 27.5685 6.62073 27.2866C6.32511 27.0391 6.05011 26.771 5.79573 26.4754C5.60323 26.2554 5.43136 26.0285 5.26636 25.781C5.31448 25.4716 5.36948 25.1691 5.45198 24.8735C5.65823 24.0554 5.98136 23.2716 6.40761 22.5566C6.64136 22.151 6.90261 21.7591 7.20511 21.3948C7.21198 21.3741 7.23261 21.3535 7.25323 21.3398C7.24636 21.3329 7.25323 21.3329 7.25323 21.3329C7.34261 21.216 7.43886 21.106 7.53511 21.0029C7.53511 20.996 7.53511 20.996 7.53511 20.996C7.81698 20.6935 8.10573 20.4048 8.42198 20.1366C8.53198 20.0473 8.63511 19.9579 8.75198 19.8685C8.77261 19.8479 8.79323 19.8341 8.82073 19.8135C10.3676 18.631 12.2995 17.916 14.3826 17.916C16.7476 17.916 18.8995 18.8029 20.5289 20.2604C21.3126 20.9685 21.9795 21.8141 22.4814 22.756C22.5226 22.8248 22.5639 22.9004 22.5982 22.976C22.6601 23.0998 22.722 23.2304 22.777 23.3679C23.0039 23.8629 23.1826 24.3854 23.3064 24.9216C23.3201 24.9766 23.3339 25.0316 23.3476 25.0866C23.4026 25.341 23.4507 25.6023 23.4851 25.8635C23.5401 26.2691 23.5676 26.6816 23.5676 27.101Z" fill="#FF9800"/>
<path d="M22.1513 27.1013C22.1513 27.2388 22.1444 27.3901 22.1376 27.5482C22.1238 27.8026 22.1032 28.0776 22.0688 28.3594C22.0551 28.5313 22.0276 28.7032 22.0001 28.8751H18.2326L17.5038 28.7582L14.6576 28.3044L14.2519 28.2426L13.3238 28.0913C12.9182 28.0913 12.0382 28.2701 11.1101 28.4419C10.6219 28.5313 10.1269 28.6276 9.68006 28.6894C9.62506 28.6963 9.57006 28.7032 9.52193 28.7101H9.51506C9.03381 28.6069 8.56631 28.4488 8.12631 28.2426C7.98881 28.1807 7.85131 28.1119 7.71381 28.0363C7.32881 27.8232 6.95756 27.5688 6.62068 27.2869C6.61381 27.2044 6.60693 27.1357 6.60693 27.1013C6.60693 26.9226 6.61381 26.7507 6.62756 26.5788C6.65506 26.1388 6.71693 25.7126 6.81318 25.3001C6.96443 24.6744 7.18443 24.0694 7.48006 23.5126C7.53506 23.3957 7.59693 23.2788 7.66568 23.1688C7.69318 23.1138 7.72756 23.0657 7.75506 23.0107C7.87881 22.8113 8.01631 22.6188 8.15381 22.4263C8.44256 22.0482 8.76568 21.6907 9.10943 21.3676C9.11631 21.3676 9.11631 21.3676 9.11631 21.3676C9.14381 21.3401 9.17131 21.3126 9.19881 21.2919C9.23318 21.2644 9.26068 21.2301 9.29506 21.2094C9.43256 21.0857 9.57006 20.9757 9.71443 20.8726C9.71443 20.8657 9.72131 20.8657 9.72131 20.8657C11.0207 19.8963 12.6294 19.3257 14.3826 19.3257C15.7438 19.3257 17.0088 19.6694 18.1157 20.2744H18.1226C19.0713 20.7969 19.8963 21.5051 20.5494 22.3576C20.8038 22.6876 21.0307 23.0382 21.2232 23.4094H21.2301C21.2644 23.4782 21.2988 23.5469 21.3332 23.6157C21.5394 24.0213 21.7044 24.4476 21.8282 24.8876H21.8351C21.8419 24.9219 21.8557 24.9563 21.8626 24.9907C21.9451 25.2863 22.0138 25.5888 22.0619 25.8982C22.0688 25.9601 22.0757 26.0288 22.0826 26.0907C22.1307 26.4207 22.1513 26.7576 22.1513 27.1013Z" fill="#FFC107"/>
<path d="M20.7419 27.0254C20.7419 27.1354 20.7419 27.2523 20.7282 27.3623V27.3692C20.7282 27.3761 20.7282 27.3761 20.7282 27.3761C20.7144 27.8711 20.6457 28.3592 20.5357 28.7992C20.5357 28.8267 20.5288 28.8473 20.5151 28.8748H17.3044L14.6576 28.3042L14.3069 28.2286L14.2519 28.2423L11.3163 28.8473L11.1857 28.8748H11.0001C10.5601 28.8748 10.1269 28.8336 9.70757 28.7511C9.64569 28.7373 9.58382 28.7236 9.52194 28.7098H9.51507C9.03382 28.6067 8.56632 28.4486 8.12632 28.2423C8.11257 28.1667 8.09882 28.0911 8.09194 28.0154C8.04382 27.7198 8.02319 27.4104 8.02319 27.1011C8.02319 26.9842 8.02319 26.8673 8.03007 26.7504C8.05069 26.3792 8.10569 26.0148 8.18819 25.6642C8.24319 25.4029 8.31882 25.1486 8.40819 24.9079C8.48382 24.6948 8.57319 24.4886 8.66944 24.2892C8.75194 24.1173 8.84819 23.9523 8.94444 23.7873C9.04069 23.6292 9.14382 23.4779 9.25382 23.3267C9.52882 22.9486 9.85194 22.5979 10.2094 22.2886C10.4157 22.1098 10.6426 21.9379 10.8763 21.7867C11.8801 21.1267 13.0832 20.7417 14.3826 20.7417C14.6369 20.7417 14.8844 20.7554 15.1251 20.7898H15.1388C15.8744 20.8723 16.5619 21.0786 17.1944 21.3879C17.2013 21.3879 17.2013 21.3879 17.2013 21.3879C18.1982 21.8761 19.0438 22.6117 19.6626 23.5192C19.7657 23.6704 19.8688 23.8354 19.9582 24.0004C20.0338 24.1311 20.1026 24.2686 20.1644 24.4061C20.2607 24.6192 20.3501 24.8461 20.4257 25.0729H20.4326C20.5082 25.3273 20.5769 25.5817 20.6251 25.8498V25.8567C20.7007 26.2348 20.7419 26.6267 20.7419 27.0254Z" fill="#FFD54F"/>
<path d="M19.3257 27.1702V27.1908C19.3257 27.5965 19.2776 27.9952 19.1814 28.3871C19.147 28.5521 19.0989 28.7171 19.037 28.8752H15.957L14.3826 28.4421L12.8082 28.8752H11.0001C10.5601 28.8752 10.127 28.834 9.70762 28.7515C9.69387 28.7308 9.68699 28.7102 9.68012 28.6896C9.58387 28.394 9.50824 28.0983 9.47387 27.789C9.44637 27.5896 9.43262 27.3833 9.43262 27.1702C9.43262 27.0877 9.43262 26.9983 9.44637 26.9158C9.45324 26.5927 9.50137 26.2765 9.58387 25.974C9.62512 25.7677 9.68699 25.5683 9.76949 25.3758C9.79699 25.2796 9.83824 25.1902 9.88637 25.1008C9.98949 24.8671 10.1132 24.6402 10.2507 24.4202C10.402 24.2002 10.567 23.994 10.7526 23.8015C10.9726 23.554 11.2201 23.3271 11.502 23.1415C11.9832 22.7908 12.5332 22.5296 13.1314 22.3852C13.5301 22.2752 13.9495 22.2202 14.3826 22.2202C15.7576 22.2202 16.9882 22.7702 17.882 23.6571C17.9164 23.6915 17.9576 23.7327 17.992 23.7808H17.9989C18.0951 23.884 18.1845 23.9871 18.2739 24.104C18.5282 24.4271 18.7414 24.7777 18.9064 25.1627C18.9889 25.3415 19.0576 25.5271 19.1126 25.7196C19.1195 25.7471 19.1264 25.7677 19.1332 25.7952C19.2295 26.1321 19.2914 26.4827 19.3051 26.8471C19.3189 26.9502 19.3257 27.0602 19.3257 27.1702Z" fill="#FFE082"/>
<path d="M17.9161 27.17C17.9161 27.4519 17.8818 27.72 17.8061 27.9744C17.7374 28.2494 17.6343 28.5106 17.5036 28.7581C17.483 28.7994 17.4349 28.875 17.4349 28.875H11.3299C11.323 28.8681 11.3161 28.8544 11.3161 28.8475C11.2336 28.7169 11.1649 28.5862 11.1099 28.4419C10.9724 28.1256 10.8899 27.7819 10.8624 27.4244C10.8486 27.3419 10.8486 27.2525 10.8486 27.17C10.8486 27.1287 10.8486 27.0806 10.8555 27.0394C10.8624 26.7369 10.9036 26.4481 10.9861 26.18C11.0549 25.9325 11.1443 25.7056 11.2611 25.4856C11.2611 25.4856 11.268 25.4787 11.268 25.4719C11.3505 25.3275 11.4399 25.1831 11.543 25.0456C11.8799 24.5919 12.3268 24.2206 12.8424 23.98C12.8493 23.98 12.8493 23.98 12.8493 23.98C13.0143 23.8975 13.1861 23.8287 13.3649 23.7806C13.3649 23.7806 13.3649 23.7806 13.3718 23.7806C13.688 23.6844 14.0318 23.6362 14.3824 23.6362C14.788 23.6362 15.1799 23.6981 15.5374 23.8287C15.668 23.8631 15.7918 23.9181 15.9155 23.98C15.9155 23.98 15.9155 23.98 15.9224 23.98C16.5136 24.2619 17.0155 24.7019 17.3593 25.2519C17.428 25.355 17.4899 25.465 17.5449 25.5819C17.5724 25.63 17.5999 25.685 17.6205 25.7331C17.7786 26.0906 17.8749 26.4825 17.9024 26.895C17.9093 26.9294 17.9093 26.9637 17.9093 27.005C17.9161 27.06 17.9161 27.115 17.9161 27.17Z" fill="#FFECB3"/>
<path d="M20.625 7.5625H12.375C9.69375 7.5625 7.5625 9.69375 7.5625 12.375V20.625C7.5625 23.3063 9.69375 25.4375 12.375 25.4375H20.625C23.3063 25.4375 25.4375 23.3063 25.4375 20.625V12.375C25.4375 9.69375 23.3063 7.5625 20.625 7.5625Z" stroke="white" stroke-width="2" stroke-miterlimit="10" stroke-linecap="round" stroke-linejoin="round"/>
<path d="M21.3125 11.6875C21.6922 11.6875 22 11.3797 22 11C22 10.6203 21.6922 10.3125 21.3125 10.3125C20.9328 10.3125 20.625 10.6203 20.625 11C20.625 11.3797 20.9328 11.6875 21.3125 11.6875Z" fill="white"/>
<path d="M16.5 20.625C18.7782 20.625 20.625 18.7782 20.625 16.5C20.625 14.2218 18.7782 12.375 16.5 12.375C14.2218 12.375 12.375 14.2218 12.375 16.5C12.375 18.7782 14.2218 20.625 16.5 20.625Z" stroke="white" stroke-width="2" stroke-miterlimit="10" stroke-linecap="round" stroke-linejoin="round"/>
</svg>
