<svg width="22" height="22" viewBox="0 0 22 22" fill="none" xmlns="http://www.w3.org/2000/svg">
<path d="M21.9701 10.8559C21.8994 10.8484 21.8291 10.8408 21.7593 10.8333C21.6895 10.8258 21.6202 10.8183 21.5514 10.8107C21.4826 10.8032 21.4143 10.7957 21.3465 10.7882C21.2787 10.7806 21.2114 10.7731 21.1445 10.7656C21.0777 10.758 21.0113 10.7505 20.9454 10.7429C20.8795 10.7353 20.8141 10.7278 20.7492 10.7202C20.6843 10.7126 20.6198 10.7049 20.5558 10.6973C20.4918 10.6897 20.4283 10.682 20.3653 10.6744C20.3022 10.6667 20.2397 10.659 20.1776 10.6512C20.1154 10.6435 20.0538 10.6357 19.9926 10.6279C19.9314 10.6201 19.8707 10.6123 19.8104 10.6044C19.7501 10.5965 19.6903 10.5886 19.6309 10.5807C19.5716 10.5727 19.5126 10.5647 19.4542 10.5567C19.3957 10.5487 19.3377 10.5406 19.2801 10.5325C19.2225 10.5243 19.1653 10.5162 19.1086 10.5079C19.0519 10.4997 18.9956 10.4914 18.9398 10.483C18.884 10.4747 18.8286 10.4663 18.7736 10.4579C18.7187 10.4494 18.6642 10.4409 18.61 10.4323C18.5559 10.4238 18.5023 10.4151 18.449 10.4064C18.3958 10.3977 18.3429 10.3889 18.2905 10.38C18.2381 10.3712 18.1861 10.3623 18.1345 10.3532C18.0829 10.3442 18.0317 10.3352 17.981 10.326C17.9303 10.3169 17.8799 10.3076 17.8299 10.2983C17.78 10.2889 17.7305 10.2795 17.6813 10.2701C17.6322 10.2606 17.5835 10.251 17.5351 10.2413C17.4868 10.2317 17.4388 10.2219 17.3913 10.2121C17.3438 10.2022 17.2966 10.1922 17.2499 10.1822C17.2031 10.1721 17.1568 10.1619 17.1108 10.1517C17.0648 10.1414 17.0192 10.1311 16.974 10.1206C16.9288 10.1101 16.884 10.0995 16.8395 10.0888C16.7951 10.0781 16.751 10.0673 16.7073 10.0564C16.6636 10.0454 16.6203 10.0344 16.5773 10.0233C16.5344 10.0121 16.4918 10.0008 16.4495 9.98941C16.4073 9.97801 16.3655 9.96649 16.324 9.95481C16.2825 9.94318 16.2414 9.93139 16.2006 9.91948C16.1598 9.90757 16.1194 9.8955 16.0793 9.88332C16.0393 9.87114 15.9996 9.8588 15.9602 9.84634C15.9209 9.83389 15.8819 9.82132 15.8432 9.80855C15.8045 9.79583 15.7662 9.78294 15.7282 9.7699C15.6903 9.75686 15.6526 9.74367 15.6154 9.73036C15.5781 9.71701 15.5411 9.70355 15.5045 9.68993C15.4678 9.67631 15.4316 9.66249 15.3956 9.64853C15.3596 9.6346 15.324 9.62047 15.2887 9.60615C15.2533 9.59188 15.2184 9.57745 15.1837 9.56286C15.1491 9.54827 15.1148 9.53349 15.0807 9.51851C15.0467 9.50358 15.013 9.48845 14.9796 9.47313C14.9462 9.45785 14.9131 9.44234 14.8803 9.42675C14.8476 9.41108 14.8151 9.39529 14.783 9.37928C14.7508 9.36326 14.7189 9.34705 14.6874 9.33069C14.6559 9.31429 14.6247 9.29773 14.5937 9.28099C14.5627 9.2642 14.5321 9.24727 14.5017 9.23014C14.4713 9.21301 14.4413 9.19568 14.4115 9.17809C14.3817 9.16058 14.3522 9.14283 14.323 9.12489C14.2938 9.10695 14.2649 9.08882 14.2363 9.07046C14.2076 9.0521 14.1793 9.03355 14.1512 9.01477C14.1231 8.99598 14.0953 8.97704 14.0678 8.95784C14.0402 8.93864 14.0129 8.91924 13.986 8.89962C13.959 8.87999 13.9322 8.86013 13.9058 8.84008C13.8794 8.82 13.8532 8.79972 13.8272 8.77921C13.8013 8.75871 13.7756 8.73793 13.7502 8.717C13.7248 8.69604 13.6997 8.67484 13.6748 8.65337C13.6499 8.63195 13.6252 8.61026 13.6008 8.58837C13.5764 8.56649 13.5523 8.54429 13.5283 8.52191C13.5044 8.49953 13.4808 8.47688 13.4574 8.454C13.4339 8.43112 13.4107 8.40802 13.3878 8.38464C13.3649 8.36127 13.3422 8.33766 13.3197 8.31375C13.2972 8.28988 13.2749 8.26574 13.2529 8.24133C13.2309 8.21693 13.2092 8.19229 13.1876 8.16739C13.166 8.14245 13.1447 8.11728 13.1235 8.09188C13.1024 8.06641 13.0815 8.04074 13.0608 8.01473C13.0401 7.98876 13.0197 7.96253 12.9995 7.93602C12.9792 7.90952 12.9592 7.88271 12.9393 7.85563C12.9195 7.82855 12.8999 7.80121 12.8805 7.77357C12.861 7.74592 12.8418 7.71804 12.8228 7.68982C12.8038 7.66164 12.7849 7.63316 12.7663 7.60437C12.7477 7.57558 12.7293 7.54652 12.7111 7.51716C12.6928 7.4878 12.6748 7.45813 12.6569 7.4282C12.6391 7.39823 12.6214 7.36799 12.6039 7.33745C12.5864 7.30691 12.5691 7.27607 12.552 7.24488C12.5349 7.21373 12.518 7.18228 12.5012 7.15052C12.4844 7.11877 12.4678 7.08666 12.4514 7.0543C12.435 7.02193 12.4188 6.98918 12.4027 6.95617C12.3867 6.92316 12.3707 6.8898 12.355 6.85614C12.3393 6.82249 12.3237 6.78853 12.3082 6.75418C12.2928 6.71988 12.2775 6.68523 12.2625 6.65028C12.2474 6.61529 12.2324 6.58 12.2176 6.54441C12.2028 6.50877 12.1882 6.4728 12.1737 6.43652C12.1592 6.4002 12.1448 6.36362 12.1306 6.32661C12.1164 6.28965 12.1024 6.25235 12.0884 6.2147C12.0745 6.17706 12.0607 6.13903 12.0471 6.1007C12.0335 6.06237 12.0199 6.02363 12.0066 5.98458C11.9932 5.94553 11.98 5.9061 11.9668 5.86636C11.9537 5.82659 11.9407 5.78648 11.9278 5.74599C11.9149 5.7055 11.9022 5.66467 11.8896 5.62345C11.877 5.58224 11.8644 5.54065 11.852 5.49876C11.8397 5.45679 11.8274 5.41448 11.8152 5.37182C11.803 5.32917 11.791 5.2861 11.779 5.24265C11.7671 5.19924 11.7552 5.15542 11.7435 5.11125C11.7318 5.06708 11.7201 5.0225 11.7086 4.97753C11.697 4.93257 11.6856 4.88723 11.6743 4.8415C11.6629 4.79578 11.6517 4.74964 11.6405 4.70316C11.6293 4.65664 11.6182 4.60975 11.6073 4.56248C11.5963 4.51516 11.5854 4.46747 11.5746 4.41936C11.5638 4.37125 11.5531 4.32277 11.5424 4.27391C11.5318 4.225 11.5212 4.17568 11.5107 4.12599C11.5002 4.07625 11.4898 4.02617 11.4794 3.97561C11.469 3.92508 11.4588 3.87413 11.4486 3.8228C11.4383 3.77144 11.4282 3.71966 11.4181 3.66746C11.408 3.61527 11.398 3.56266 11.388 3.50959C11.3781 3.45656 11.3682 3.40308 11.3583 3.34922C11.3485 3.29532 11.3387 3.24101 11.329 3.18628C11.3192 3.13151 11.3095 3.07637 11.2999 3.02073C11.2902 2.96509 11.2806 2.90903 11.2711 2.85256C11.2615 2.79606 11.252 2.73913 11.2425 2.68176C11.233 2.62438 11.2236 2.56658 11.2142 2.50826C11.2048 2.45002 11.1954 2.39128 11.1861 2.33208C11.1767 2.27293 11.1674 2.21328 11.1581 2.15322C11.1489 2.09316 11.1396 2.03261 11.1304 1.9716C11.1211 1.9106 11.1119 1.84918 11.1027 1.78726C11.0935 1.72535 11.0843 1.66298 11.0751 1.60012C11.066 1.53727 11.0568 1.47395 11.0477 1.41019C11.0386 1.34639 11.0294 1.28213 11.0203 1.21738C11.0112 1.15263 11.0021 1.08744 10.993 1.02178C10.9839 0.95613 10.9748 0.889908 10.9657 0.823272C10.9565 0.756636 10.9474 0.689511 10.9383 0.621893C10.9291 0.554275 10.92 0.486165 10.9109 0.417566C10.9017 0.348966 10.8926 0.279876 10.8834 0.210295C10.8743 0.140714 10.8651 0.0706007 10.8559 3.73153e-05C10.8484 0.070797 10.8408 0.141069 10.8334 0.210884C10.8258 0.280662 10.8183 0.349947 10.8108 0.418743C10.8033 0.487539 10.7957 0.555842 10.7882 0.623656C10.7806 0.69147 10.7731 0.758791 10.7656 0.825623C10.758 0.892455 10.7504 0.958835 10.7429 1.02472C10.7353 1.09057 10.7278 1.156 10.7202 1.22091C10.7126 1.28585 10.7049 1.35031 10.6974 1.41427C10.6897 1.47827 10.682 1.54178 10.6744 1.6048C10.6667 1.66785 10.659 1.73042 10.6513 1.79253C10.6435 1.85465 10.6358 1.91626 10.6279 1.97747C10.6201 2.03868 10.6123 2.09936 10.6044 2.1597C10.5966 2.21996 10.5887 2.27981 10.5807 2.33916C10.5728 2.39852 10.5648 2.45747 10.5567 2.51592C10.5487 2.57437 10.5406 2.63241 10.5325 2.68999C10.5244 2.74758 10.5162 2.80471 10.508 2.86142C10.4998 2.91814 10.4915 2.97441 10.4831 3.03022C10.4748 3.08607 10.4664 3.14143 10.4579 3.19641C10.4495 3.25139 10.441 3.30588 10.4324 3.36C10.4238 3.41411 10.4152 3.46777 10.4065 3.52106C10.3978 3.57431 10.389 3.62718 10.3801 3.67959C10.3713 3.73201 10.3624 3.78402 10.3533 3.83561C10.3443 3.88719 10.3353 3.93837 10.3261 3.98909C10.3169 4.03985 10.3077 4.0902 10.2984 4.14017C10.2891 4.19013 10.2797 4.23965 10.2701 4.28879C10.2607 4.33793 10.2511 4.38666 10.2414 4.43497C10.2317 4.48332 10.2219 4.53125 10.212 4.57881C10.2022 4.62637 10.1922 4.67351 10.1822 4.72024C10.1721 4.767 10.1619 4.81336 10.1517 4.85933C10.1414 4.90531 10.1311 4.95091 10.1206 4.99613C10.1101 5.04136 10.0995 5.0862 10.0888 5.13063C10.0781 5.17506 10.0673 5.21916 10.0563 5.26284C10.0454 5.30651 10.0344 5.34986 10.0232 5.39282C10.0121 5.43575 10.0008 5.47834 9.98939 5.52059C9.97798 5.56284 9.96646 5.60467 9.95479 5.64613C9.94311 5.68759 9.93136 5.72875 9.91945 5.76953C9.90754 5.81031 9.89548 5.85072 9.88329 5.89079C9.87111 5.93086 9.85877 5.97055 9.84631 6.00991C9.83386 6.04926 9.82129 6.08827 9.80852 6.12695C9.7958 6.16559 9.78291 6.20393 9.76987 6.24189C9.75683 6.27986 9.74364 6.31752 9.73029 6.35481C9.71694 6.39209 9.70347 6.42904 9.68985 6.46569C9.67623 6.50234 9.66246 6.53861 9.64845 6.57458C9.63452 6.61055 9.6204 6.64619 9.60608 6.68148C9.59181 6.71682 9.57737 6.75177 9.56279 6.78643C9.5482 6.82109 9.53338 6.85545 9.51844 6.88947C9.50351 6.92349 9.48838 6.95717 9.47306 6.99059C9.45777 7.02397 9.4423 7.05709 9.42667 7.08983C9.41104 7.12257 9.39522 7.15506 9.3792 7.1872C9.36319 7.21934 9.34702 7.25119 9.33062 7.28273C9.31422 7.31427 9.29766 7.34551 9.28091 7.3765C9.26413 7.40744 9.24719 7.43808 9.23006 7.46847C9.21293 7.49885 9.1956 7.52889 9.17801 7.55867C9.16049 7.58845 9.14275 7.61794 9.12481 7.64716C9.10687 7.67638 9.08874 7.70526 9.07038 7.73392C9.05202 7.76258 9.03347 7.79089 9.01469 7.81899C8.9959 7.84708 8.97696 7.87488 8.95776 7.90242C8.93856 7.92995 8.91916 7.95722 8.89954 7.9842C8.87991 8.01117 8.86005 8.03792 8.84 8.06433C8.81992 8.09078 8.79964 8.11697 8.77913 8.14293C8.75859 8.16886 8.73785 8.19453 8.71692 8.21993C8.69596 8.24537 8.67476 8.27051 8.65329 8.29539C8.63183 8.32027 8.61018 8.34496 8.58829 8.36935C8.56641 8.39375 8.54421 8.41792 8.52183 8.44183C8.49945 8.46574 8.4768 8.48938 8.45392 8.51281C8.43104 8.53623 8.40793 8.55943 8.38456 8.58237C8.36118 8.6053 8.33758 8.62802 8.31367 8.65051C8.28976 8.673 8.26565 8.69523 8.24125 8.71724C8.21684 8.73924 8.19221 8.76103 8.16731 8.78262C8.14236 8.80418 8.11723 8.82555 8.09179 8.84663C8.06636 8.8677 8.04065 8.88866 8.01465 8.90933C7.98867 8.93003 7.96244 8.95047 7.93594 8.97072C7.90943 8.99098 7.88262 9.01101 7.85554 9.03086C7.82847 9.05071 7.80113 9.07029 7.77348 9.08973C7.74583 9.10916 7.71796 9.12838 7.68974 9.14741C7.66156 9.1664 7.63307 9.18525 7.60428 9.20387C7.57549 9.22249 7.54643 9.24092 7.51707 9.25913C7.48771 9.27734 7.45804 9.29541 7.42815 9.31325C7.39822 9.33113 7.36798 9.34878 7.3374 9.36625C7.30686 9.38376 7.27602 9.40104 7.24483 9.41814C7.21368 9.43528 7.18223 9.45219 7.15047 9.46896C7.11871 9.48573 7.08661 9.50231 7.05424 9.5187C7.02188 9.5351 6.98913 9.55135 6.95612 9.56741C6.9231 9.58348 6.88975 9.59943 6.85609 9.61516C6.82243 9.63089 6.78847 9.64647 6.75413 9.66191C6.71979 9.67735 6.68518 9.6926 6.65023 9.70767C6.61524 9.72277 6.57995 9.73773 6.54435 9.75254C6.50872 9.76731 6.47278 9.78201 6.43646 9.79649C6.40018 9.811 6.36356 9.82534 6.32656 9.83952C6.2896 9.85374 6.2523 9.86778 6.21461 9.88167C6.17697 9.8956 6.13894 9.90938 6.10061 9.92301C6.06224 9.93668 6.02353 9.95017 5.98448 9.96355C5.94543 9.97692 5.906 9.99016 5.86627 10.0033C5.8265 10.0164 5.78639 10.0294 5.74589 10.0423C5.7054 10.0552 5.66457 10.0679 5.62336 10.0805C5.58215 10.0932 5.54056 10.1057 5.49866 10.1181C5.45669 10.1305 5.41438 10.1428 5.37173 10.1549C5.32908 10.1671 5.28601 10.1792 5.24256 10.1911C5.19915 10.203 5.15532 10.2149 5.11115 10.2266C5.06698 10.2384 5.0224 10.25 4.97744 10.2615C4.93248 10.2731 4.88713 10.2845 4.84141 10.2959C4.79569 10.3072 4.74958 10.3185 4.70306 10.3296C4.65655 10.3408 4.60966 10.3519 4.56238 10.3628C4.51507 10.3738 4.46737 10.3847 4.4193 10.3955C4.3712 10.4063 4.32271 10.417 4.27385 10.4277C4.22494 10.4383 4.17562 10.4489 4.12593 10.4594C4.07623 10.4699 4.02612 10.4803 3.97555 10.4907C3.92502 10.501 3.87407 10.5113 3.82274 10.5215C3.77138 10.5317 3.7196 10.5419 3.6674 10.552C3.61521 10.5621 3.5626 10.5721 3.50953 10.582C3.45651 10.592 3.40302 10.6019 3.34916 10.6118C3.29526 10.6216 3.24095 10.6314 3.18622 10.6411C3.13145 10.6509 3.0763 10.6606 3.02067 10.6702C2.96503 10.6799 2.90897 10.6895 2.8525 10.699C2.79599 10.7086 2.73907 10.7181 2.6817 10.7276C2.62428 10.7371 2.56652 10.7465 2.5082 10.7559C2.44995 10.7653 2.39122 10.7747 2.33206 10.7841C2.27291 10.7934 2.21326 10.8027 2.1532 10.812C2.09314 10.8213 2.03258 10.8305 1.97158 10.8398C1.91057 10.849 1.84915 10.8583 1.78724 10.8675C1.72533 10.8766 1.66296 10.8858 1.6001 10.895C1.53724 10.9042 1.47393 10.9133 1.41016 10.9224C1.3464 10.9315 1.28211 10.9407 1.2174 10.9499C1.15265 10.959 1.08745 10.9681 1.02179 10.9772C0.95614 10.9863 0.889956 10.9954 0.823282 11.0045C0.756646 11.0137 0.689521 11.0228 0.621903 11.0319C0.554285 11.041 0.486177 11.0502 0.417578 11.0593C0.348979 11.0685 0.279889 11.0776 0.210307 11.0868C0.140726 11.0959 0.070612 11.1051 8.68551e-05 11.1143C0.0708463 11.1218 0.141119 11.1294 0.210896 11.1369C0.280674 11.1444 0.349959 11.1519 0.418755 11.1595C0.487551 11.167 0.555854 11.1745 0.623668 11.1821C0.691482 11.1896 0.758802 11.1971 0.825671 11.2047C0.892503 11.2122 0.958845 11.2198 1.02477 11.2273C1.0907 11.2349 1.15606 11.2424 1.22097 11.2501C1.28591 11.2576 1.35036 11.2653 1.41432 11.2729C1.47832 11.2806 1.54179 11.2882 1.60485 11.2959C1.66791 11.3036 1.73047 11.3113 1.79258 11.319C1.8547 11.3268 1.91631 11.3345 1.97752 11.3424C2.03873 11.3502 2.09945 11.358 2.15975 11.3659C2.22005 11.3738 2.27986 11.3816 2.33922 11.3896C2.39858 11.3975 2.45752 11.4055 2.51597 11.4136C2.57442 11.4216 2.63246 11.4297 2.69008 11.4378C2.74766 11.4459 2.8048 11.4541 2.86151 11.4624C2.91823 11.4706 2.97449 11.4788 3.0303 11.4872C3.08615 11.4956 3.14152 11.5039 3.1965 11.5124C3.25148 11.5208 3.30597 11.5293 3.36008 11.5379C3.4142 11.5465 3.46786 11.5552 3.52111 11.5639C3.57436 11.5726 3.62723 11.5814 3.67965 11.5902C3.73206 11.5991 3.78407 11.608 3.83565 11.617C3.88724 11.626 3.93842 11.6351 3.98918 11.6442C4.03994 11.6534 4.09028 11.6626 4.14025 11.6719C4.19022 11.6812 4.23974 11.6906 4.28888 11.7002C4.33802 11.7096 4.38674 11.7192 4.43505 11.7289C4.4834 11.7386 4.53134 11.7484 4.57886 11.7582C4.62641 11.7681 4.67352 11.778 4.72028 11.7881C4.76705 11.7982 4.8134 11.8084 4.85938 11.8186C4.90535 11.8289 4.95096 11.8392 4.99618 11.8497C5.0414 11.8602 5.08621 11.8707 5.13068 11.8815C5.17511 11.8922 5.21921 11.903 5.26289 11.9139C5.30657 11.9249 5.3499 11.9359 5.39287 11.947C5.43583 11.9582 5.47839 11.9695 5.52063 11.9809C5.56288 11.9923 5.60472 12.0038 5.64618 12.0155C5.68764 12.0272 5.7288 12.0389 5.76958 12.0508C5.81036 12.0627 5.85077 12.0748 5.89084 12.087C5.9309 12.0992 5.97059 12.1115 6.00995 12.1239C6.0493 12.1364 6.08832 12.149 6.127 12.1617C6.16564 12.1745 6.20397 12.1874 6.24194 12.2004C6.2799 12.2134 6.31756 12.2266 6.35485 12.24C6.39214 12.2533 6.42908 12.2668 6.46573 12.2804C6.50238 12.294 6.53865 12.3078 6.57462 12.3218C6.61059 12.3357 6.64623 12.3499 6.68153 12.3642C6.71686 12.3785 6.75181 12.3929 6.78647 12.4075C6.82113 12.4221 6.85549 12.4369 6.88951 12.4518C6.92353 12.4668 6.95721 12.4819 6.99063 12.4972C7.02401 12.5125 7.05712 12.528 7.08987 12.5436C7.12265 12.5593 7.1551 12.575 7.18724 12.5911C7.21938 12.6071 7.25123 12.6232 7.28277 12.6396C7.31431 12.656 7.34555 12.6726 7.37653 12.6893C7.40748 12.7061 7.43812 12.7231 7.46851 12.7402C7.49889 12.7573 7.52893 12.7747 7.55871 12.7922C7.58849 12.8098 7.61798 12.8275 7.6472 12.8454C7.67641 12.8634 7.70529 12.8815 7.73395 12.8999C7.76257 12.9182 7.79093 12.9368 7.81903 12.9556C7.84708 12.9743 7.87488 12.9933 7.90245 13.0125C7.93003 13.0317 7.95726 13.0511 7.98423 13.0707C8.01121 13.0903 8.03796 13.1102 8.06437 13.1302C8.09082 13.1503 8.11701 13.1706 8.14297 13.1911C8.16893 13.2116 8.1946 13.2324 8.21997 13.2533C8.24541 13.2743 8.27054 13.2955 8.29542 13.317C8.32034 13.3384 8.34499 13.3601 8.36939 13.382C8.39378 13.4038 8.41795 13.426 8.44186 13.4484C8.46577 13.4708 8.48942 13.4935 8.51284 13.5163C8.53627 13.5392 8.55943 13.5624 8.5824 13.5857C8.60534 13.6091 8.62805 13.6327 8.65054 13.6566C8.673 13.6805 8.69526 13.7046 8.71727 13.729C8.73927 13.7534 8.76106 13.778 8.78265 13.8029C8.80421 13.8279 8.82558 13.853 8.84666 13.8785C8.86781 13.9039 8.88869 13.9296 8.90936 13.9556C8.93006 13.9816 8.9505 14.0078 8.97076 14.0343C8.99101 14.0608 9.01104 14.0876 9.03089 14.1147C9.05074 14.1418 9.07032 14.1691 9.08976 14.1968C9.10919 14.2244 9.12841 14.2523 9.14744 14.2805C9.16647 14.3087 9.18527 14.3372 9.20389 14.366C9.22251 14.3948 9.24095 14.4238 9.25916 14.4532C9.27737 14.4825 9.29544 14.5122 9.31331 14.5421C9.33119 14.5721 9.3488 14.6023 9.36631 14.6329C9.38378 14.6635 9.40111 14.6943 9.41821 14.7255C9.43534 14.7566 9.45225 14.788 9.46902 14.8198C9.48579 14.8516 9.50237 14.8837 9.51876 14.916C9.53516 14.9484 9.55141 14.9812 9.56747 15.0142C9.58354 15.0472 9.59945 15.0805 9.61522 15.1142C9.63095 15.1478 9.64653 15.1818 9.66197 15.2161C9.67741 15.2505 9.69266 15.2851 9.70773 15.3201C9.72283 15.355 9.73779 15.3903 9.7526 15.4259C9.76737 15.4616 9.78203 15.4975 9.79655 15.5338C9.81102 15.5701 9.8254 15.6067 9.83958 15.6437C9.8538 15.6807 9.86783 15.718 9.8818 15.7557C9.89573 15.7933 9.90951 15.8313 9.92314 15.8697C9.93678 15.908 9.9503 15.9467 9.96368 15.9858C9.97705 16.0248 9.99028 16.0643 10.0034 16.104C10.0166 16.1438 10.0296 16.1839 10.0424 16.2244C10.0553 16.2649 10.0681 16.3057 10.0807 16.3469C10.0933 16.3881 10.1058 16.4297 10.1182 16.4716C10.1306 16.5136 10.1429 16.5559 10.1551 16.5985C10.1672 16.6412 10.1793 16.6843 10.1912 16.7277C10.2032 16.7711 10.215 16.815 10.2267 16.8591C10.2385 16.9033 10.2501 16.9479 10.2617 16.9928C10.2732 17.0378 10.2846 17.0831 10.296 17.1289C10.3073 17.1746 10.3186 17.2207 10.3297 17.2672C10.3409 17.3137 10.352 17.3606 10.3629 17.4079C10.3739 17.4552 10.3848 17.5029 10.3956 17.551C10.4064 17.5991 10.4171 17.6476 10.4278 17.6964C10.4384 17.7453 10.449 17.7946 10.4595 17.8443C10.47 17.894 10.4804 17.9442 10.4908 17.9947C10.5012 18.0453 10.5114 18.0962 10.5216 18.1475C10.5319 18.1989 10.542 18.2507 10.5521 18.3029C10.5622 18.3551 10.5722 18.4077 10.5822 18.4607C10.5921 18.5138 10.602 18.5673 10.6118 18.6211C10.6217 18.675 10.6315 18.7294 10.6412 18.7841C10.651 18.8389 10.6606 18.894 10.6703 18.9496C10.6799 19.0053 10.6895 19.0613 10.6991 19.1178C10.7087 19.1743 10.7182 19.2312 10.7277 19.2886C10.7372 19.346 10.7466 19.4038 10.756 19.4621C10.7654 19.5204 10.7748 19.5791 10.7841 19.6382C10.7935 19.6974 10.8028 19.757 10.8121 19.8171C10.8214 19.8772 10.8306 19.9377 10.8399 19.9987C10.8491 20.0597 10.8583 20.1212 10.8675 20.1831C10.8767 20.245 10.8859 20.3074 10.895 20.3702C10.9042 20.4331 10.9133 20.4964 10.9225 20.5602C10.9316 20.624 10.9407 20.6882 10.9498 20.7529C10.9589 20.8177 10.968 20.8829 10.9771 20.9486C10.9863 21.0142 10.9954 21.0804 11.0045 21.1471C11.0136 21.2137 11.0227 21.2808 11.0319 21.3484C11.041 21.4161 11.0501 21.4842 11.0593 21.5528C11.0684 21.6214 11.0775 21.6905 11.0867 21.76C11.0959 21.8296 11.1051 21.8997 11.1143 21.9703C11.1218 21.8995 11.1293 21.8292 11.1368 21.7594C11.1443 21.6896 11.1518 21.6203 11.1594 21.5516C11.1669 21.4828 11.1744 21.4145 11.182 21.3466C11.1895 21.2788 11.197 21.2115 11.2046 21.1447C11.2122 21.0778 11.2197 21.0115 11.2273 20.9456C11.2348 20.8797 11.2424 20.8143 11.25 20.7494C11.2576 20.6844 11.2652 20.62 11.2729 20.556C11.2805 20.492 11.2881 20.4285 11.2958 20.3655C11.3035 20.3024 11.3112 20.2398 11.3189 20.1777C11.3267 20.1156 11.3345 20.054 11.3422 19.9927C11.35 19.9315 11.3578 19.8708 11.3657 19.8105C11.3736 19.7503 11.3815 19.6904 11.3895 19.6311C11.3974 19.5717 11.4054 19.5128 11.4134 19.4543C11.4215 19.3958 11.4296 19.3378 11.4377 19.2802C11.4458 19.2226 11.4539 19.1655 11.4622 19.1088C11.4704 19.0521 11.4787 18.9958 11.4871 18.94C11.4954 18.8841 11.5038 18.8288 11.5122 18.7738C11.5207 18.7188 11.5292 18.6643 11.5378 18.6102C11.5464 18.5561 11.555 18.5024 11.5637 18.4492C11.5724 18.396 11.5812 18.3431 11.5901 18.2907C11.5989 18.2382 11.6078 18.1862 11.6169 18.1346C11.6259 18.0831 11.635 18.0319 11.6441 17.9811C11.6533 17.9304 11.6625 17.88 11.6718 17.8301C11.6811 17.7801 11.6905 17.7306 11.7 17.6814C11.7095 17.6323 11.7191 17.5836 11.7288 17.5353C11.7385 17.4869 11.7483 17.439 11.7581 17.3915C11.7679 17.3439 11.7779 17.2968 11.788 17.25C11.798 17.2033 11.8082 17.1569 11.8185 17.1109C11.8287 17.065 11.8391 17.0194 11.8496 16.9741C11.8601 16.9289 11.8706 16.8841 11.8813 16.8396C11.892 16.7952 11.9029 16.7511 11.9138 16.7074C11.9247 16.6637 11.9358 16.6204 11.9469 16.5774C11.9581 16.5345 11.9693 16.4919 11.9807 16.4497C11.9921 16.4075 12.0037 16.3656 12.0153 16.3241C12.027 16.2826 12.0388 16.2415 12.0507 16.2007C12.0626 16.1599 12.0747 16.1195 12.0868 16.0795C12.099 16.0394 12.1114 15.9997 12.1238 15.9604C12.1363 15.921 12.1488 15.882 12.1616 15.8433C12.1743 15.8047 12.1872 15.7663 12.2003 15.7284C12.2133 15.6904 12.2265 15.6527 12.2398 15.6155C12.2532 15.5782 12.2666 15.5413 12.2802 15.5046C12.2939 15.468 12.3076 15.4317 12.3216 15.3957C12.3356 15.3597 12.3497 15.3241 12.364 15.2888C12.3783 15.2535 12.3927 15.2185 12.4073 15.1839C12.4219 15.1492 12.4367 15.1149 12.4517 15.0808C12.4666 15.0468 12.4817 15.0131 12.497 14.9797C12.5123 14.9463 12.5278 14.9132 12.5434 14.8805C12.5591 14.8477 12.5749 14.8152 12.5909 14.7831C12.6069 14.751 12.6231 14.7191 12.6395 14.6876C12.6559 14.656 12.6724 14.6248 12.6892 14.5938C12.7059 14.5628 12.7229 14.5322 12.74 14.5018C12.7572 14.4715 12.7745 14.4414 12.792 14.4117C12.8096 14.3819 12.8273 14.3524 12.8452 14.3232C12.8632 14.294 12.8813 14.2651 12.8997 14.2364C12.918 14.2078 12.9366 14.1794 12.9554 14.1513C12.9741 14.1233 12.9931 14.0954 13.0123 14.0679C13.0315 14.0404 13.0509 14.0131 13.0705 13.9861C13.0901 13.9592 13.11 13.9324 13.1301 13.906C13.1501 13.8795 13.1704 13.8534 13.1909 13.8274C13.2114 13.8014 13.2322 13.7758 13.2531 13.7504C13.2741 13.725 13.2953 13.6998 13.3168 13.6749C13.3382 13.6501 13.3599 13.6254 13.3818 13.601C13.4037 13.5766 13.4258 13.5524 13.4482 13.5285C13.4706 13.5046 13.4933 13.481 13.5161 13.4575C13.539 13.4341 13.5621 13.4109 13.5855 13.388C13.6089 13.365 13.6325 13.3423 13.6564 13.3198C13.6803 13.2974 13.7044 13.2751 13.7288 13.2531C13.7532 13.2311 13.7778 13.2093 13.8027 13.1877C13.8277 13.1662 13.8528 13.1448 13.8783 13.1237C13.9037 13.1026 13.9294 13.0817 13.9554 13.061C13.9814 13.0403 14.0076 13.0199 14.0341 12.9996C14.0606 12.9794 14.0874 12.9593 14.1145 12.9395C14.1416 12.9196 14.1689 12.9 14.1966 12.8806C14.2242 12.8612 14.2521 12.842 14.2803 12.8229C14.3085 12.8039 14.337 12.7851 14.3658 12.7665C14.3946 12.7478 14.4236 12.7294 14.453 12.7112C14.4823 12.693 14.512 12.6749 14.5419 12.657C14.5719 12.6392 14.6022 12.6216 14.6327 12.604C14.6632 12.5865 14.6941 12.5693 14.7253 12.5522C14.7564 12.535 14.7879 12.5181 14.8196 12.5013C14.8514 12.4846 14.8835 12.468 14.9158 12.4516C14.9482 12.4352 14.981 12.4189 15.014 12.4029C15.047 12.3868 15.0803 12.3709 15.114 12.3551C15.1477 12.3394 15.1816 12.3238 15.216 12.3084C15.2503 12.293 15.2849 12.2777 15.3199 12.2626C15.3549 12.2475 15.3901 12.2326 15.4257 12.2178C15.4613 12.2029 15.4974 12.1883 15.5336 12.1738C15.5699 12.1593 15.6065 12.145 15.6435 12.1308C15.6805 12.1166 15.7178 12.1025 15.7555 12.0886C15.7931 12.0746 15.8312 12.0608 15.8695 12.0472C15.9079 12.0335 15.9466 12.0201 15.9856 12.0067C16.0247 11.9933 16.0641 11.98 16.1038 11.9669C16.1436 11.9538 16.1837 11.9408 16.2242 11.9279C16.2647 11.915 16.3055 11.9023 16.3467 11.8897C16.3879 11.8771 16.4295 11.8645 16.4714 11.8521C16.5134 11.8397 16.5557 11.8275 16.5984 11.8153C16.641 11.8031 16.6841 11.7911 16.7275 11.7791C16.7709 11.7672 16.8148 11.7553 16.8589 11.7436C16.9031 11.7319 16.9477 11.7202 16.9927 11.7087C17.0376 11.6971 17.083 11.6857 17.1287 11.6744C17.1744 11.663 17.2205 11.6517 17.267 11.6406C17.3135 11.6294 17.3604 11.6183 17.4077 11.6074C17.455 11.5964 17.5027 11.5855 17.5508 11.5747C17.5989 11.5639 17.6474 11.5532 17.6963 11.5425C17.7452 11.5319 17.7945 11.5213 17.8442 11.5108C17.8939 11.5003 17.944 11.4899 17.9946 11.4795C18.0452 11.4692 18.0961 11.4589 18.1474 11.4487C18.1988 11.4385 18.2506 11.4283 18.3028 11.4182C18.355 11.4082 18.4076 11.3982 18.4606 11.3882C18.5137 11.3782 18.5671 11.3683 18.621 11.3585C18.6749 11.3486 18.7292 11.3388 18.784 11.3291C18.8387 11.3193 18.8939 11.3097 18.9495 11.3C19.0051 11.2904 19.0612 11.2808 19.1177 11.2712C19.1742 11.2616 19.2311 11.2521 19.2885 11.2426C19.3459 11.2331 19.4036 11.2237 19.4619 11.2143C19.5202 11.2049 19.5789 11.1955 19.6381 11.1862C19.6972 11.1768 19.7569 11.1675 19.8169 11.1582C19.877 11.149 19.9375 11.1397 19.9985 11.1305C20.0595 11.1212 20.121 11.1121 20.1829 11.1029C20.2448 11.0937 20.3072 11.0845 20.37 11.0753C20.4329 11.0662 20.4962 11.057 20.56 11.0479C20.6238 11.0388 20.688 11.0296 20.7527 11.0206C20.8175 11.0114 20.8827 11.0023 20.9483 10.9932C21.014 10.9841 21.0802 10.975 21.1469 10.9659C21.2135 10.9568 21.2806 10.9476 21.3482 10.9385C21.4158 10.9294 21.484 10.9202 21.5526 10.9111C21.6212 10.9019 21.6902 10.8928 21.7598 10.8836C21.8295 10.8743 21.8996 10.865 21.9701 10.8559Z" fill="#D33805"/>
</svg>
