<svg width="29" height="29" viewBox="0 0 29 29" fill="none" xmlns="http://www.w3.org/2000/svg">
<path fill-rule="evenodd" clip-rule="evenodd" d="M0.723145 28.2827L2.6698 21.2054C1.46886 19.1344 0.837314 16.7842 0.838036 14.3771C0.841649 6.84644 6.99523 0.719727 14.5579 0.719727C18.2279 0.721166 21.6718 2.14382 24.2622 4.72505C26.852 7.30699 28.2784 10.7381 28.2769 14.3879C28.2741 21.9186 22.119 28.046 14.5579 28.046H14.5521C12.2564 28.0453 9.99975 27.4717 7.99601 26.383L0.723145 28.2827Z" fill="white"/>
<path fill-rule="evenodd" clip-rule="evenodd" d="M0.722796 28.6425C0.627414 28.6425 0.534922 28.6051 0.466276 28.536C0.375952 28.4446 0.340546 28.3115 0.374507 28.1884L2.28142 21.2543C1.09927 19.1631 0.47567 16.7884 0.477115 14.3778C0.480005 6.64777 6.79616 0.359863 14.5575 0.359863C18.3222 0.361302 21.8593 1.82138 24.5177 4.47096C27.1761 7.12127 28.6393 10.643 28.6379 14.3878C28.635 22.1171 22.3181 28.4057 14.5575 28.4057C12.2532 28.405 9.97339 27.8387 7.95014 26.7672L0.814564 28.6302C0.784216 28.6389 0.753867 28.6425 0.722796 28.6425Z" fill="white"/>
<path fill-rule="evenodd" clip-rule="evenodd" d="M14.5576 0.719604C18.2276 0.721044 21.6715 2.1437 24.262 4.72492C26.8517 7.30686 28.2781 10.7379 28.2767 14.3878C28.2738 21.9184 22.1188 28.0459 14.5576 28.0459H14.5518C12.2561 28.0451 9.9995 27.4716 7.99575 26.3829L0.722887 28.2826L2.66954 21.2053C1.4686 19.1343 0.837056 16.7841 0.837779 14.377C0.841392 6.84632 6.99497 0.719604 14.5576 0.719604ZM14.5576 0C6.59754 0 0.118802 6.4491 0.115189 14.377C0.114466 16.7999 0.728668 19.1875 1.89348 21.301L0.025588 28.0934C-0.0423355 28.3416 0.0270331 28.6064 0.209126 28.7892C0.346418 28.9274 0.532124 29.0029 0.722887 29.0029C0.784307 29.0029 0.845728 28.995 0.906425 28.9792L7.90615 27.1514C9.94964 28.2078 12.2402 28.7655 14.5518 28.7662C22.5176 28.7662 28.9964 22.3164 29 14.3885C29.0014 10.5465 27.5006 6.93411 24.7743 4.21688C22.0465 1.49894 18.4184 0.00143921 14.5576 0Z" fill="#CFD8DC"/>
<path fill-rule="evenodd" clip-rule="evenodd" d="M22.6233 6.35575C20.47 4.20988 17.6078 3.02758 14.5613 3.02686C8.27191 3.02686 3.1567 8.11878 3.15381 14.3779C3.15309 16.523 3.75573 18.6113 4.89742 20.4197L5.16911 20.8493L4.01658 25.0381L8.33261 23.9112L8.74955 24.1573C10.4997 25.1921 12.507 25.739 14.5534 25.7397H14.5577C20.8428 25.7397 25.958 20.6471 25.9602 14.3873C25.9609 11.3541 24.7766 8.50161 22.6233 6.35575Z" fill="#40C351"/>
<path fill-rule="evenodd" clip-rule="evenodd" d="M11.1283 8.66783C10.8718 8.09934 10.6015 8.08783 10.3566 8.07775C10.1564 8.06912 9.92809 8.06984 9.69975 8.06984C9.47141 8.06984 9.1 8.15547 8.78567 8.49728C8.47134 8.8391 7.58545 9.66448 7.58545 11.344C7.58545 13.0236 8.81385 14.647 8.98511 14.8744C9.15636 15.1018 11.3566 18.6588 14.841 20.0275C17.7364 21.1645 18.326 20.9385 18.9547 20.8817C19.5833 20.8248 20.983 20.0563 21.2684 19.259C21.5538 18.4616 21.5538 17.7787 21.4686 17.6363C21.3826 17.4938 21.1542 17.4089 20.8117 17.2376C20.4692 17.0663 18.7834 16.2409 18.4691 16.1272C18.1548 16.0136 17.9264 15.9567 17.6974 16.2985C17.469 16.6396 16.8122 17.4089 16.612 17.6363C16.4119 17.8644 16.2117 17.8932 15.8692 17.7219C15.5267 17.5506 14.4226 17.1908 13.1125 16.0279C12.0937 15.1234 11.4058 14.0059 11.2056 13.664C11.0055 13.323 11.1839 13.138 11.3559 12.9675C11.5098 12.8142 11.6984 12.5688 11.8704 12.3695C12.0417 12.1701 12.0987 12.0277 12.2129 11.8003C12.3271 11.5722 12.27 11.3728 12.184 11.2023C12.0995 11.031 11.4332 9.34282 11.1283 8.66783Z" fill="white"/>
</svg>
